<mxfile host="app.diagrams.net" modified="2023-04-17T08:01:14.043Z" agent="Mozilla/5.0 (Windows NT 10.0; Win64; x64) AppleWebKit/537.36 (KHTML, like Gecko) Chrome/112.0.0.0 Safari/537.36 Edg/112.0.1722.48" version="21.1.8" etag="GzND4DpFj4axyt6NOQ_e" type="github">
  <diagram name="第 1 页" id="0MWF7R5gDZtdumw0v351">
    <mxGraphModel>
      <root>
        <mxCell id="0" />
        <mxCell id="1" parent="0" />
      </root>
    </mxGraphModel>
  </diagram>
</mxfile>
